<mxfile host="65bd71144e">
    <diagram id="ybIHxXCL54Ibz4m5sB5Z" name="Page-1">
        <mxGraphModel dx="846" dy="955" grid="1" gridSize="10" guides="1" tooltips="1" connect="1" arrows="1" fold="1" page="1" pageScale="1" pageWidth="827" pageHeight="1169" math="0" shadow="0">
            <root>
                <mxCell id="0"/>
                <mxCell id="1" parent="0"/>
                <mxCell id="2" value="" style="group" parent="1" vertex="1" connectable="0">
                    <mxGeometry x="890" y="60" width="420" height="938" as="geometry"/>
                </mxCell>
                <mxCell id="3" value="" style="strokeWidth=1;shadow=0;dashed=0;align=center;html=1;shape=mxgraph.mockup.containers.browserWindow;rSize=0;strokeColor=#666666;mainText=,;recursiveResize=0;rounded=0;labelBackgroundColor=none;fontFamily=Verdana;fontSize=12;container=0;" parent="2" vertex="1">
                    <mxGeometry y="19" width="420" height="900" as="geometry"/>
                </mxCell>
                <mxCell id="4" value="&lt;font style=&quot;font-size: 24px&quot;&gt;Landing Page&lt;/font&gt;" style="strokeWidth=1;shadow=0;dashed=0;align=center;html=1;shape=mxgraph.mockup.containers.anchor;fontSize=17;fontColor=#666666;align=left;" parent="2" vertex="1">
                    <mxGeometry width="110" height="26" as="geometry"/>
                </mxCell>
                <mxCell id="5" value="" style="rounded=0;whiteSpace=wrap;html=1;fontSize=24;" parent="2" vertex="1">
                    <mxGeometry y="139" width="420" height="50" as="geometry"/>
                </mxCell>
                <mxCell id="6" value="App Name" style="text;html=1;strokeColor=none;fillColor=none;align=center;verticalAlign=middle;whiteSpace=wrap;rounded=0;fontSize=24;" parent="2" vertex="1">
                    <mxGeometry x="127.5" y="149" width="165" height="30" as="geometry"/>
                </mxCell>
                <mxCell id="7" value="" style="rounded=1;whiteSpace=wrap;html=1;fontSize=24;" parent="2" vertex="1">
                    <mxGeometry x="20" y="230" width="380" height="220" as="geometry"/>
                </mxCell>
                <mxCell id="8" value="Please enter your name" style="text;html=1;strokeColor=none;fillColor=none;align=center;verticalAlign=middle;whiteSpace=wrap;rounded=0;fontSize=24;" parent="2" vertex="1">
                    <mxGeometry x="50" y="260" width="320" height="50" as="geometry"/>
                </mxCell>
                <mxCell id="9" value="Text Input" style="rounded=0;whiteSpace=wrap;html=1;fontSize=24;" parent="2" vertex="1">
                    <mxGeometry x="80" y="330" width="250" height="40" as="geometry"/>
                </mxCell>
                <mxCell id="10" value="Go!" style="rounded=1;whiteSpace=wrap;html=1;fontSize=24;" parent="2" vertex="1">
                    <mxGeometry x="120" y="390" width="160" height="40" as="geometry"/>
                </mxCell>
                <mxCell id="12" value="&lt;div&gt;&lt;/div&gt;&lt;span style=&quot;font-size: 30px&quot;&gt;&lt;ul&gt;&lt;li&gt;&lt;span&gt;The user enters their name and clicks the button.&amp;nbsp;&lt;/span&gt;&lt;/li&gt;&lt;/ul&gt;&lt;ul&gt;&lt;li&gt;&lt;span style=&quot;font-size: 30px&quot;&gt;Their name needs to be &lt;b&gt;persistently&lt;/b&gt; stored somewhere, so we can't store it using component state as it will be lost when the page is refreshed.&amp;nbsp;&lt;/span&gt;&lt;/li&gt;&lt;/ul&gt;&lt;ul&gt;&lt;li&gt;&lt;span style=&quot;font-size: 30px&quot;&gt;LocalStorage might be a good place to start to get things moving and we can look at storing this in a database later on.&amp;nbsp;&lt;/span&gt;&lt;/li&gt;&lt;/ul&gt;&lt;ul&gt;&lt;li&gt;&lt;span style=&quot;font-size: 30px&quot;&gt;LocalStorage data persists between page refreshes, and even client power cycles, so their name will be available when they revisit the app (unless they clear their browser's cache).&lt;/span&gt;&lt;/li&gt;&lt;/ul&gt;&lt;ul&gt;&lt;li&gt;&lt;span style=&quot;font-size: 30px&quot;&gt;If the user's name is already stored in LocalStorage from a previous visit. Then does this page does this page need to be displayed? Do we want this page to be able to update the users name?&lt;/span&gt;&lt;/li&gt;&lt;/ul&gt;&lt;/span&gt;" style="text;html=1;strokeColor=none;fillColor=default;align=left;verticalAlign=top;whiteSpace=wrap;rounded=0;gradientColor=none;horizontal=1;spacingTop=0;spacingLeft=16;spacingRight=16;" vertex="1" parent="1">
                    <mxGeometry x="1360" y="100" width="1420" height="870" as="geometry"/>
                </mxCell>
            </root>
        </mxGraphModel>
    </diagram>
</mxfile>